<svg width="15" height="16" viewBox="0 0 15 16" fill="none" xmlns="http://www.w3.org/2000/svg">
<path fill-rule="evenodd" clip-rule="evenodd" d="M13.3333 2.16667V3.83333C14.2538 3.83333 15 4.57953 15 5.5V10.0833C15 10.3135 14.8135 10.5 14.5833 10.5H13.3333V13.8333C13.3333 14.7538 12.5871 15.5 11.6667 15.5H3.33333C2.41286 15.5 1.66667 14.7538 1.66667 13.8333V10.5H0.416667C0.186548 10.5 0 10.3135 0 10.0833V5.5C0 4.57953 0.746192 3.83333 1.66667 3.83333V2.16667C1.66667 1.24619 2.41286 0.5 3.33333 0.5H11.6667C12.5871 0.5 13.3333 1.24619 13.3333 2.16667ZM11.6667 2.16667H3.33333V3.83333H11.6667V2.16667ZM11.6667 13.8333H3.33333V8.83333H11.6667V13.8333ZM12.9167 7.16667C13.1468 7.16667 13.3333 6.98012 13.3333 6.75V5.91667C13.3333 5.68655 13.1468 5.5 12.9167 5.5H12.0833C11.8532 5.5 11.6667 5.68655 11.6667 5.91667V6.75C11.6667 6.98012 11.8532 7.16667 12.0833 7.16667H12.9167Z" fill="white"/>
</svg>
