<svg width="18" height="18" viewBox="0 0 18 18" fill="none" xmlns="http://www.w3.org/2000/svg">
<path fill-rule="evenodd" clip-rule="evenodd" d="M16 4H3C2.44772 4 2 3.55228 2 3C2 2.44772 2.44772 2 3 2H16C16 0.89543 15.1046 0 14 0H3C1.34315 0 0 1.34315 0 3V16C0 17.1046 0.89543 18 2 18H16C17.1046 18 18 17.1046 18 16V6C18 4.89543 17.1046 4 16 4ZM2 16V6H16V8H9C8.44771 8 8 8.44771 8 9V13C8 13.5523 8.44771 14 9 14H16V16H2ZM12 11.5V10.5C12 10.2239 11.7761 10 11.5 10H10.5C10.2239 10 10 10.2239 10 10.5V11.5C10 11.7761 10.2239 12 10.5 12H11.5C11.7761 12 12 11.7761 12 11.5Z" fill="#2B63C0"/>
</svg>
